0
SECTION
2
HEADER
9
$INSUNITS
70
4
9
$ACADVER
1
AC1014
9
$HANDSEED
5
FFFF
0
ENDSEC
0
SECTION
2
TABLES
0
TABLE
2
VPORT
5
8
100
AcDbSymbolTable
0
ENDTAB
0
TABLE
2
LTYPE
5
5
100
AcDbSymbolTable
0
LTYPE
5
14
100
AcDbSymbolTableRecord
100
AcDbLinetypeTableRecord
2
BYBLOCK
70
0
0
LTYPE
5
15
100
AcDbSymbolTableRecord
100
AcDbLinetypeTableRecord
2
BYLAYER
70
0
0
LTYPE
5
16
100
AcDbSymbolTableRecord
100
AcDbLinetypeTableRecord
2
DASHED
70
0
3
Dashed __ __ __ __ __ __ __ __ __ __ __ __ __ _
72
65
73
2
40
0.75
49
0.5
74
0
49
-0.25
74
0
0
ENDTAB
0
TABLE
2
LAYER
5
2
100
AcDbSymbolTable
70
2
0
LAYER
5
50
100
AcDbSymbolTableRecord
100
AcDbLayerTableRecord
2
0
70
0
62
7
6
CONTINUOUS
0
ENDTAB
0
TABLE
2
STYLE
5
3
100
AcDbSymbolTable
70
1
0
STYLE
5
11
100
AcDbSymbolTableRecord
100
AcDbTextStyleTableRecord
2
STANDARD
70
0
0
ENDTAB
0
TABLE
2
VIEW
5
6
100
AcDbSymbolTable
70
0
0
ENDTAB
0
TABLE
2
UCS
5
7
100
AcDbSymbolTable
70
0
0
ENDTAB
0
TABLE
2
APPID
5
9
100
AcDbSymbolTable
70
2
0
APPID
5
12
100
AcDbSymbolTableRecord
100
AcDbRegAppTableRecord
2
ACAD
70
0
0
ENDTAB
0
TABLE
2
DIMSTYLE
5
A
100
AcDbSymbolTable
70
1
0
ENDTAB
0
TABLE
2
BLOCK_RECORD
5
1
100
AcDbSymbolTable
70
1
0
BLOCK_RECORD
5
1F
100
AcDbSymbolTableRecord
100
AcDbBlockTableRecord
2
*MODEL_SPACE
0
BLOCK_RECORD
5
1B
100
AcDbSymbolTableRecord
100
AcDbBlockTableRecord
2
*PAPER_SPACE
0
ENDTAB
0
ENDSEC
0
SECTION
2
BLOCKS
0
BLOCK
5
20
100
AcDbEntity
100
AcDbBlockBegin
2
*MODEL_SPACE
0
ENDBLK
5
21
100
AcDbEntity
100
AcDbBlockEnd
0
BLOCK
5
1C
100
AcDbEntity
100
AcDbBlockBegin
2
*PAPER_SPACE
0
ENDBLK
5
1D
100
AcDbEntity
100
AcDbBlockEnd
0
ENDSEC
0
SECTION
2
ENTITIES
0
LWPOLYLINE
5
100
100
AcDbEntity
8
0
100
AcDbPolyline
90
24
70
1
43
0.0
10
186.4999999850989
20
-14.99999999999995
42
0.41421356237309365
10
192.49999998509892
20
-8.9999999999999485
10
192.49999998509892
20
7.4999999999999245
42
-0.41421356237309498
10
214.49999998509895
20
29.500000000000014
10
229.00000000000006
20
29.500000000000057
42
0.4142135623730937
10
235.00000000000006
20
35.500000000000043
10
235.00000000000003
20
364.5
42
0.41421356237308815
10
229
20
370.50000000000006
10
214.49999998509895
20
370.50000000000011
42
-0.41421356237309503
10
192.4999999850989
20
392.50000000000011
10
192.4999999850989
20
409.00000000000006
42
0.41421356237308815
10
186.4999999850989
20
415.00000000000006
10
53.496045205771964
20
415.00000000000006
42
0.41410837713684506
10
47.496045592712726
20
409.00215482924403
10
47.490128389733918
20
392.52603929350465
42
-0.41421356237309548
10
25.482228767955522
20
370.53394175284848
10
11.002154829243986
20
370.5391421009802
42
0.41431875543329605
10
4.9999999999999911
20
364.53914248792091
10
5.0000000000000355
20
35.460857512079116
42
0.41431875543330743
10
11.002154829243986
20
29.460857899019921
10
25.482228767955498
20
29.466058247151583
42
-0.4142135623730952
10
47.490128389733918
20
7.4739607064955198
10
47.496045592712719
20
-9.0021548292439313
42
0.41410837713684445
10
53.496045205771956
20
-14.999999999999957
0
LWPOLYLINE
5
101
100
AcDbEntity
8
0
100
AcDbPolyline
90
6
70
1
43
0.0
10
96.954673979149177
20
245.8062592653514
10
81.625290988075363
20
254.65668266175874
42
-0.014088720998528719
10
80.473721654474133
20
255.36553024840907
10
82.942822952370477
20
259.64213914539977
10
93.942822952370463
20
259.64213914539977
10
99.442822952370449
20
250.11585970377098
0
LWPOLYLINE
5
102
100
AcDbEntity
8
0
100
AcDbPolyline
90
6
70
1
43
0.0
10
99.795907997001677
20
244.16587204031356
10
102.28405697022293
20
248.47547247873308
10
113.28405697022291
20
248.47547247873308
10
118.78405697022289
20
238.94919303710429
10
116.31495567232656
20
234.67258414011357
42
-0.014088720998546486
10
115.12529098807536
20
235.31544864390628
0
LWPOLYLINE
5
103
100
AcDbEntity
8
0
100
AcDbPolyline
90
4
70
1
43
0.0
10
119.36280478879431
20
233.39006476348823
10
121.62529098807538
20
237.3088058120664
10
132.62529098807536
20
237.3088058120664
10
134.88777718735528
20
233.39006476349147
42
-0.1661846985151981
0
LWPOLYLINE
5
104
100
AcDbEntity
8
0
100
AcDbPolyline
90
6
70
1
43
0.0
10
137.93562630382417
20
234.67258414011354
10
135.46652500592782
20
238.94919303710429
10
140.96652500592782
20
248.47547247873308
10
151.96652500592779
20
248.47547247873308
10
154.45467397914905
20
244.16587204031359
10
139.12529098807508
20
235.31544864390671
42
-0.014088720998543487
0
LWPOLYLINE
5
105
100
AcDbEntity
8
0
100
AcDbPolyline
90
6
70
1
43
0.0
10
157.29590799700151
20
245.8062592653514
10
154.80775902378025
20
250.11585970377098
10
160.30775902378025
20
259.64213914539977
10
171.30775902378025
20
259.64213914539977
10
173.77686032167651
20
255.36553024840899
42
-0.01408872099853316
10
172.62529098807539
20
254.65668266175879
0
LWPOLYLINE
5
106
100
AcDbEntity
8
0
100
AcDbPolyline
90
4
70
1
43
0.0
10
176.41147924091385
20
257.36378532185932
10
174.14899304163271
20
261.28252637043767
10
179.64899304163271
20
270.80880581206651
10
184.17396544019712
20
270.80880581206611
42
-0.16618469851509265
0
LWPOLYLINE
5
107
100
AcDbEntity
8
0
100
AcDbPolyline
90
6
70
1
43
0.0
10
184.58719563742551
20
274.08958026214225
10
179.64899304163268
20
274.08958026214225
10
174.14899304163271
20
283.61585970377109
10
179.64899304163271
20
293.14213914539982
10
184.62529098807534
20
293.14213914539982
10
184.62529098807565
20
275.44129235258532
42
-0.01408872099853849
0
LWPOLYLINE
5
108
100
AcDbEntity
8
0
100
AcDbPolyline
90
6
70
1
43
0.0
10
184.62529098807536
20
296.42291359547562
10
179.64899304163268
20
296.42291359547562
10
174.14899304163271
20
305.94919303710441
10
179.64899304163271
20
315.47547247873325
10
184.58719563742557
20
315.47547247873331
42
-0.014088720998541044
10
184.62529098807536
20
314.12376038829007
0
LWPOLYLINE
5
109
100
AcDbEntity
8
0
100
AcDbPolyline
90
4
70
1
43
0.0
10
184.17396544019496
20
318.75624692880899
10
179.64899304163268
20
318.75624692880899
10
174.14899304163271
20
328.28252637043784
10
176.41147924091385
20
332.20126741901618
42
-0.16618469851513293
0
LWPOLYLINE
5
110
100
AcDbEntity
8
0
100
AcDbPolyline
90
6
70
1
43
0.0
10
173.77686032167659
20
334.19952249246643
10
171.30775902378022
20
329.92291359547562
10
160.30775902378025
20
329.92291359547562
10
154.80775902378025
20
339.44919303710446
10
157.29590799700151
20
343.75879347552404
10
172.62529098807551
20
334.90837007911665
42
-0.014088720998537047
0
LWPOLYLINE
5
111
100
AcDbEntity
8
0
100
AcDbPolyline
90
6
70
1
43
0.0
10
154.45467397914905
20
345.39918070056194
10
151.96652500592779
20
341.08958026214236
10
140.96652500592779
20
341.08958026214236
10
135.46652500592782
20
350.61585970377115
10
137.93562630382422
20
354.89246860076184
42
-0.014088720998487299
10
139.12529098807542
20
354.24960409696916
0
LWPOLYLINE
5
112
100
AcDbEntity
8
0
100
AcDbPolyline
90
4
70
1
43
0.0
10
134.88777718735639
20
356.17498797738727
10
132.62529098807534
20
352.25624692880905
10
121.62529098807536
20
352.25624692880905
10
119.36280478878523
20
356.17498797741376
42
-0.16618469851458142
0
LWPOLYLINE
5
113
100
AcDbEntity
8
0
100
AcDbPolyline
90
6
70
1
43
0.0
10
116.31495567232655
20
354.89246860076196
10
118.78405697022289
20
350.61585970377115
10
113.28405697022289
20
341.08958026214236
10
102.28405697022291
20
341.08958026214236
10
99.795907997001635
20
345.39918070056194
10
115.12529098807323
20
354.24960409697292
42
-0.014088720998510952
0
LWPOLYLINE
5
114
100
AcDbEntity
8
0
100
AcDbPolyline
90
6
70
1
43
0.0
10
96.954673979149192
20
343.75879347552404
10
99.442822952370449
20
339.44919303710446
10
93.942822952370449
20
329.92291359547562
10
82.942822952370463
20
329.92291359547562
10
80.473721654474076
20
334.19952249246643
42
-0.014088720998561254
10
81.62529098807542
20
334.90837007911682
0
LWPOLYLINE
5
115
100
AcDbEntity
8
0
100
AcDbPolyline
90
4
70
1
43
0.0
10
77.839102735236892
20
332.20126741901606
10
80.101588934518006
20
328.28252637043784
10
74.601588934517991
20
318.75624692880899
10
70.076616535966693
20
318.75624692880683
42
-0.16618469851535392
0
LWPOLYLINE
5
116
100
AcDbEntity
8
0
100
AcDbPolyline
90
6
70
1
43
0.0
10
69.663386338725218
20
315.47547247873325
10
74.60158893451802
20
315.47547247873325
10
80.101588934518006
20
305.94919303710441
10
74.601588934517991
20
296.42291359547562
10
69.625290988075363
20
296.42291359547562
10
69.625290988077097
20
314.12376038829018
42
-0.014088720998551371
0
LWPOLYLINE
5
117
100
AcDbEntity
8
0
100
AcDbPolyline
90
6
70
1
43
0.0
10
69.625290988075363
20
293.14213914539982
10
74.60158893451802
20
293.14213914539982
10
80.101588934518006
20
283.61585970377109
10
74.601588934517991
20
274.08958026214225
10
69.663386338725942
20
274.08958026214225
42
-0.014088720998534603
10
69.625290988075363
20
275.44129235258526
0
LWPOLYLINE
5
118
100
AcDbEntity
8
0
100
AcDbPolyline
90
6
70
1
43
0.0
10
96.78405697022292
20
283.61585970377109
10
102.28405697022293
20
293.14213914539982
10
113.28405697022291
20
293.14213914539982
10
118.78405697022289
20
283.61585970377109
10
113.28405697022289
20
274.08958026214225
10
102.28405697022291
20
274.08958026214225
0
LWPOLYLINE
5
119
100
AcDbEntity
8
0
100
AcDbPolyline
90
6
70
1
43
0.0
10
116.12529098807536
20
272.44919303710435
10
121.62529098807538
20
281.9754724787332
10
132.62529098807536
20
281.9754724787332
10
138.12529098807534
20
272.44919303710435
10
132.62529098807534
20
262.92291359547556
10
121.62529098807536
20
262.92291359547556
0
LWPOLYLINE
5
120
100
AcDbEntity
8
0
100
AcDbPolyline
90
6
70
1
43
0.0
10
116.12529098807536
20
250.11585970377098
10
121.62529098807538
20
259.64213914539977
10
132.62529098807536
20
259.64213914539977
10
138.12529098807534
20
250.11585970377098
10
132.62529098807534
20
240.58958026214216
10
121.62529098807536
20
240.58958026214216
0
LWPOLYLINE
5
121
100
AcDbEntity
8
0
100
AcDbPolyline
90
6
70
1
43
0.0
10
135.46652500592782
20
261.28252637043767
10
140.96652500592782
20
270.80880581206651
10
151.96652500592779
20
270.80880581206651
10
157.46652500592779
20
261.28252637043767
10
151.96652500592779
20
251.75624692880888
10
140.96652500592779
20
251.75624692880888
0
LWPOLYLINE
5
122
100
AcDbEntity
8
0
100
AcDbPolyline
90
6
70
1
43
0.0
10
77.442822952370477
20
272.44919303710435
10
82.942822952370477
20
281.9754724787332
10
93.942822952370463
20
281.9754724787332
10
99.442822952370449
20
272.44919303710435
10
93.942822952370449
20
262.92291359547556
10
82.942822952370463
20
262.92291359547556
0
LWPOLYLINE
5
123
100
AcDbEntity
8
0
100
AcDbPolyline
90
6
70
1
43
0.0
10
77.442822952370477
20
294.78252637043772
10
82.942822952370477
20
304.30880581206657
10
93.942822952370463
20
304.30880581206657
10
99.442822952370449
20
294.78252637043772
10
93.942822952370449
20
285.25624692880893
10
82.942822952370463
20
285.25624692880893
0
LWPOLYLINE
5
124
100
AcDbEntity
8
0
100
AcDbPolyline
90
6
70
1
43
0.0
10
96.78405697022292
20
305.94919303710441
10
102.28405697022293
20
315.47547247873325
10
113.28405697022291
20
315.47547247873325
10
118.78405697022289
20
305.94919303710441
10
113.28405697022289
20
296.42291359547562
10
102.28405697022291
20
296.42291359547562
0
LWPOLYLINE
5
125
100
AcDbEntity
8
0
100
AcDbPolyline
90
6
70
1
43
0.0
10
96.78405697022292
20
261.28252637043767
10
102.28405697022293
20
270.80880581206651
10
113.28405697022291
20
270.80880581206651
10
118.78405697022289
20
261.28252637043767
10
113.28405697022289
20
251.75624692880888
10
102.28405697022291
20
251.75624692880888
0
LWPOLYLINE
5
126
100
AcDbEntity
8
0
100
AcDbPolyline
90
6
70
1
43
0.0
10
154.80775902378025
20
294.78252637043772
10
160.30775902378025
20
304.30880581206657
10
171.30775902378025
20
304.30880581206657
10
176.80775902378025
20
294.78252637043772
10
171.30775902378022
20
285.25624692880893
10
160.30775902378025
20
285.25624692880893
0
LWPOLYLINE
5
127
100
AcDbEntity
8
0
100
AcDbPolyline
90
6
70
1
43
0.0
10
116.12529098807536
20
294.78252637043772
10
121.62529098807538
20
304.30880581206657
10
132.62529098807536
20
304.30880581206657
10
138.12529098807534
20
294.78252637043772
10
132.62529098807534
20
285.25624692880893
10
121.62529098807536
20
285.25624692880893
0
LWPOLYLINE
5
128
100
AcDbEntity
8
0
100
AcDbPolyline
90
6
70
1
43
0.0
10
135.46652500592782
20
283.61585970377109
10
140.96652500592782
20
293.14213914539982
10
151.96652500592779
20
293.14213914539982
10
157.46652500592779
20
283.61585970377109
10
151.96652500592779
20
274.08958026214225
10
140.96652500592779
20
274.08958026214225
0
LWPOLYLINE
5
129
100
AcDbEntity
8
0
100
AcDbPolyline
90
6
70
1
43
0.0
10
135.46652500592782
20
305.94919303710441
10
140.96652500592782
20
315.47547247873325
10
151.96652500592779
20
315.47547247873325
10
157.46652500592779
20
305.94919303710441
10
151.96652500592779
20
296.42291359547562
10
140.96652500592779
20
296.42291359547562
0
LWPOLYLINE
5
130
100
AcDbEntity
8
0
100
AcDbPolyline
90
6
70
1
43
0.0
10
77.442822952370477
20
317.11585970377109
10
82.942822952370477
20
326.64213914539994
10
93.942822952370463
20
326.64213914539994
10
99.442822952370449
20
317.11585970377109
10
93.942822952370449
20
307.58958026214231
10
82.942822952370463
20
307.58958026214231
0
LWPOLYLINE
5
131
100
AcDbEntity
8
0
100
AcDbPolyline
90
6
70
1
43
0.0
10
116.12529098807536
20
339.44919303710446
10
121.62529098807538
20
348.97547247873331
10
132.62529098807536
20
348.97547247873331
10
138.12529098807534
20
339.44919303710446
10
132.62529098807534
20
329.92291359547562
10
121.62529098807536
20
329.92291359547562
0
LWPOLYLINE
5
132
100
AcDbEntity
8
0
100
AcDbPolyline
90
6
70
1
43
0.0
10
116.12529098807536
20
317.11585970377109
10
121.62529098807538
20
326.64213914539994
10
132.62529098807536
20
326.64213914539994
10
138.12529098807534
20
317.11585970377109
10
132.62529098807534
20
307.58958026214231
10
121.62529098807536
20
307.58958026214231
0
LWPOLYLINE
5
133
100
AcDbEntity
8
0
100
AcDbPolyline
90
6
70
1
43
0.0
10
96.78405697022292
20
328.28252637043784
10
102.28405697022293
20
337.80880581206657
10
113.28405697022291
20
337.80880581206657
10
118.78405697022289
20
328.28252637043784
10
113.28405697022289
20
318.75624692880899
10
102.28405697022291
20
318.75624692880899
0
LWPOLYLINE
5
134
100
AcDbEntity
8
0
100
AcDbPolyline
90
6
70
1
43
0.0
10
154.80775902378025
20
317.11585970377109
10
160.30775902378025
20
326.64213914539994
10
171.30775902378025
20
326.64213914539994
10
176.80775902378025
20
317.11585970377109
10
171.30775902378022
20
307.58958026214231
10
160.30775902378025
20
307.58958026214231
0
LWPOLYLINE
5
135
100
AcDbEntity
8
0
100
AcDbPolyline
90
6
70
1
43
0.0
10
154.80775902378025
20
272.44919303710435
10
160.30775902378025
20
281.9754724787332
10
171.30775902378025
20
281.9754724787332
10
176.80775902378025
20
272.44919303710435
10
171.30775902378022
20
262.92291359547556
10
160.30775902378025
20
262.92291359547556
0
LWPOLYLINE
5
136
100
AcDbEntity
8
0
100
AcDbPolyline
90
6
70
1
43
0.0
10
135.46652500592782
20
328.28252637043784
10
140.96652500592782
20
337.80880581206657
10
151.96652500592779
20
337.80880581206657
10
157.46652500592779
20
328.28252637043784
10
151.96652500592779
20
318.75624692880899
10
140.96652500592779
20
318.75624692880899
0
LWPOLYLINE
5
137
100
AcDbEntity
8
0
100
AcDbPolyline
90
4
70
1
43
0.0
10
70.076616535955736
20
270.80880581206651
10
74.60158893451802
20
270.80880581206651
10
80.101588934518006
20
261.28252637043767
10
77.839102735240132
20
257.36378532186313
42
-0.16618469851503084
0
CIRCLE
5
138
100
AcDbEntity
8
0
100
AcDbCircle
10
9.7791771056878218
20
362.03958077086952
30
0
40
2
210
0
220
0
230
1
0
CIRCLE
5
139
100
AcDbEntity
8
0
100
AcDbCircle
10
9.7335665533573135
20
164.96041103888524
30
0
40
2
210
0
220
0
230
1
0
CIRCLE
5
140
100
AcDbEntity
8
0
100
AcDbCircle
10
9.7791771056878218
20
37.960419229130594
30
0
40
2
210
0
220
0
230
1
0
CIRCLE
5
141
100
AcDbEntity
8
0
100
AcDbCircle
10
230.19999998509928
20
38.000000000000163
30
0
40
2
210
0
220
0
230
1
0
CIRCLE
5
142
100
AcDbEntity
8
0
100
AcDbCircle
10
9.7335665533573135
20
235.03958896111484
30
0
40
2
210
0
220
0
230
1
0
CIRCLE
5
143
100
AcDbEntity
8
0
100
AcDbCircle
10
56.005299870971008
20
-10.194557123376402
30
0
40
2
210
0
220
0
230
1
0
CIRCLE
5
144
100
AcDbEntity
8
0
100
AcDbCircle
10
230.19999998509928
20
361.99999999999989
30
0
40
2.0000000000000004
210
0
220
0
230
1
0
CIRCLE
5
145
100
AcDbEntity
8
0
100
AcDbCircle
10
56.005299870971008
20
410.19455712337646
30
0
40
2
210
0
220
0
230
1
0
CIRCLE
5
146
100
AcDbEntity
8
0
100
AcDbCircle
10
230.19999998509917
20
234.99999999999901
30
0
40
2.0000000000000004
210
0
220
0
230
1
0
CIRCLE
5
147
100
AcDbEntity
8
0
100
AcDbCircle
10
183.99117449282585
20
410.17157481384794
30
0
40
2.0000000000000004
210
0
220
0
230
1
0
CIRCLE
5
148
100
AcDbEntity
8
0
100
AcDbCircle
10
183.99117449282585
20
-10.171574813847863
30
0
40
2.0000000000000004
210
0
220
0
230
1
0
CIRCLE
5
149
100
AcDbEntity
8
0
100
AcDbCircle
10
230.19999998509917
20
165.00000000000108
30
0
40
2
210
0
220
0
230
1
0
ENDSEC
0
SECTION
2
OBJECTS
0
DICTIONARY
5
C
100
AcDbDictionary
3
ACAD_GROUP
350
D
3
ACAD_MLINESTYLE
350
17
0
DICTIONARY
5
D
100
AcDbDictionary
0
DICTIONARY
5
1A
330
C
100
AcDbDictionary
0
DICTIONARY
5
17
100
AcDbDictionary
0
ENDSEC
0
EOF
