0
SECTION
2
HEADER
9
$INSUNITS
70
4
9
$ACADVER
1
AC1014
9
$HANDSEED
5
FFFF
0
ENDSEC
0
SECTION
2
TABLES
0
TABLE
2
VPORT
5
8
100
AcDbSymbolTable
0
ENDTAB
0
TABLE
2
LTYPE
5
5
100
AcDbSymbolTable
0
LTYPE
5
14
100
AcDbSymbolTableRecord
100
AcDbLinetypeTableRecord
2
BYBLOCK
70
0
0
LTYPE
5
15
100
AcDbSymbolTableRecord
100
AcDbLinetypeTableRecord
2
BYLAYER
70
0
0
LTYPE
5
16
100
AcDbSymbolTableRecord
100
AcDbLinetypeTableRecord
2
DASHED
70
0
3
Dashed __ __ __ __ __ __ __ __ __ __ __ __ __ _
72
65
73
2
40
0.75
49
0.5
74
0
49
-0.25
74
0
0
ENDTAB
0
TABLE
2
LAYER
5
2
100
AcDbSymbolTable
70
2
0
LAYER
5
50
100
AcDbSymbolTableRecord
100
AcDbLayerTableRecord
2
0
70
0
62
7
6
CONTINUOUS
0
ENDTAB
0
TABLE
2
STYLE
5
3
100
AcDbSymbolTable
70
1
0
STYLE
5
11
100
AcDbSymbolTableRecord
100
AcDbTextStyleTableRecord
2
STANDARD
70
0
0
ENDTAB
0
TABLE
2
VIEW
5
6
100
AcDbSymbolTable
70
0
0
ENDTAB
0
TABLE
2
UCS
5
7
100
AcDbSymbolTable
70
0
0
ENDTAB
0
TABLE
2
APPID
5
9
100
AcDbSymbolTable
70
2
0
APPID
5
12
100
AcDbSymbolTableRecord
100
AcDbRegAppTableRecord
2
ACAD
70
0
0
ENDTAB
0
TABLE
2
DIMSTYLE
5
A
100
AcDbSymbolTable
70
1
0
ENDTAB
0
TABLE
2
BLOCK_RECORD
5
1
100
AcDbSymbolTable
70
1
0
BLOCK_RECORD
5
1F
100
AcDbSymbolTableRecord
100
AcDbBlockTableRecord
2
*MODEL_SPACE
0
BLOCK_RECORD
5
1B
100
AcDbSymbolTableRecord
100
AcDbBlockTableRecord
2
*PAPER_SPACE
0
ENDTAB
0
ENDSEC
0
SECTION
2
BLOCKS
0
BLOCK
5
20
100
AcDbEntity
100
AcDbBlockBegin
2
*MODEL_SPACE
0
ENDBLK
5
21
100
AcDbEntity
100
AcDbBlockEnd
0
BLOCK
5
1C
100
AcDbEntity
100
AcDbBlockBegin
2
*PAPER_SPACE
0
ENDBLK
5
1D
100
AcDbEntity
100
AcDbBlockEnd
0
ENDSEC
0
SECTION
2
ENTITIES
0
LWPOLYLINE
5
100
100
AcDbEntity
8
0
100
AcDbPolyline
90
16
70
1
43
0.0
10
217.90030814948574
20
62.399593493053246
42
0.13806983198354772
10
247.59992332512013
20
92.098322113486901
42
0.12845164721672275
10
248.74965695621157
20
96.499835255276395
10
248.74965695608751
20
163.50064641371296
42
0.12845164721672292
10
247.59992332497902
20
167.9021595554978
42
0.13806983198355358
10
217.90030814923338
20
197.60088817582198
42
0.12844406129430458
10
213.49902934911586
20
198.75049042005301
10
146.50178539167962
20
198.75049041992892
42
0.12844406129430502
10
142.10050659156633
20
197.60088817568163
42
0.13807743705160155
10
112.39976002907053
20
167.9001416130759
42
0.12844406129430549
10
111.2501577848395
20
163.49886281295835
10
111.25015778496356
20
96.501618855521997
42
0.12844406129430583
10
112.3997600292109
20
92.100340055408694
42
0.13807743705160125
10
142.1005065918165
20
62.399593492912963
42
0.12844406129430497
10
146.50178539193402
20
61.249991248681951
10
213.49902934937219
20
61.249991248805848
42
0.12844406129431263
0
LWPOLYLINE
5
101
100
AcDbEntity
8
0
100
AcDbPolyline
90
16
70
1
43
0.0
10
112.39976002907021
20
232.10034005565899
42
0.13807743705160119
10
142.10050659156585
20
202.39959349305255
42
0.12844406129430613
10
146.50178539167956
20
201.24999124880591
10
213.49902934911592
20
201.24999124868094
42
0.12844406129430597
10
217.90030814923347
20
202.39959349291183
42
0.13806983198354791
10
247.59992332497939
20
232.09832211323376
42
0.12845164721672886
10
248.74965695608802
20
236.49983525501878
10
248.74965695621299
20
303.50064641345875
42
0.12845164721672811
10
247.59992332512076
20
307.90215955524798
42
0.13806983198354242
10
217.9003081494875
20
337.60088817568061
42
0.1284440612943101
10
213.49902934937407
20
338.7504904199281
10
146.50178539193587
20
338.75049042005281
42
0.12844406129430486
10
142.10050659181832
20
337.60088817582186
42
0.13807743705160103
10
112.39976002921237
20
307.90014161332658
42
0.1284440612943048
10
111.25015778496498
20
303.49886281321335
10
111.25015778484
20
236.50161885577694
42
0.12844406129430549
0
LWPOLYLINE
5
102
100
AcDbEntity
8
0
100
AcDbPolyline
90
8
70
1
43
0.0
10
284.0000038145991
20
13.099999999936935
42
0.41421356237309631
10
287.00000381459989
20
16.099999999936166
10
287.00000381469374
20
383.90000000001362
42
0.41421356237310542
10
284.00000381469448
20
386.90000000001447
10
76.000011444089424
20
386.90000000006751
42
0.41421356237309503
10
73.000011444088642
20
383.90000000006842
10
73.000011443992818
20
16.099999999990757
42
0.41421356237309503
10
76.000011443992008
20
13.099999999989976
0
CIRCLE
5
103
100
AcDbEntity
8
0
100
AcDbCircle
10
-117.75040737052699
20
207.75024083436716
30
3.0819791163594346e-12
40
2.5499999999999998
210
-2.8032424492505445e-90
220
3.5032461608120757e-45
230
-1
0
CIRCLE
5
104
100
AcDbEntity
8
0
100
AcDbCircle
10
-242.250407370527
20
207.75024083436716
30
3.0819791163594346e-12
40
2.5499999999999998
210
-2.8032424492505445e-90
220
3.5032461608120757e-45
230
-1
0
CIRCLE
5
105
100
AcDbEntity
8
0
100
AcDbCircle
10
-242.250407370527
20
67.750240834366082
30
3.0819791163594346e-12
40
2.5499999999999998
210
-2.8032424492505445e-90
220
3.5032461608120757e-45
230
-1
0
CIRCLE
5
106
100
AcDbEntity
8
0
100
AcDbCircle
10
-117.75040737052699
20
332.25024083436693
30
3.0819791163594346e-12
40
2.5499999999999998
210
-2.8032424492505445e-90
220
3.5032461608120757e-45
230
-1
0
CIRCLE
5
107
100
AcDbEntity
8
0
100
AcDbCircle
10
-117.75040737052699
20
192.25024083436591
30
3.0819791163594346e-12
40
2.5499999999999998
210
-2.8032424492505445e-90
220
3.5032461608120757e-45
230
-1
0
CIRCLE
5
108
100
AcDbEntity
8
0
100
AcDbCircle
10
-242.250407370527
20
192.25024083436591
30
3.0819791163594346e-12
40
2.5499999999999998
210
-2.8032424492505445e-90
220
3.5032461608120757e-45
230
-1
0
CIRCLE
5
109
100
AcDbEntity
8
0
100
AcDbCircle
10
-117.75040737052699
20
67.750240834366082
30
3.0819791163594346e-12
40
2.5499999999999998
210
-2.8032424492505445e-90
220
3.5032461608120757e-45
230
-1
0
CIRCLE
5
110
100
AcDbEntity
8
0
100
AcDbCircle
10
-242.250407370527
20
332.25024083436693
30
3.0819791163594346e-12
40
2.5499999999999998
210
-2.8032424492505445e-90
220
3.5032461608120757e-45
230
-1
0
ENDSEC
0
SECTION
2
OBJECTS
0
DICTIONARY
5
C
100
AcDbDictionary
3
ACAD_GROUP
350
D
3
ACAD_MLINESTYLE
350
17
0
DICTIONARY
5
D
100
AcDbDictionary
0
DICTIONARY
5
1A
330
C
100
AcDbDictionary
0
DICTIONARY
5
17
100
AcDbDictionary
0
ENDSEC
0
EOF
