0
SECTION
2
HEADER
9
$INSUNITS
70
4
9
$ACADVER
1
AC1014
9
$HANDSEED
5
FFFF
0
ENDSEC
0
SECTION
2
TABLES
0
TABLE
2
VPORT
5
8
100
AcDbSymbolTable
0
ENDTAB
0
TABLE
2
LTYPE
5
5
100
AcDbSymbolTable
0
LTYPE
5
14
100
AcDbSymbolTableRecord
100
AcDbLinetypeTableRecord
2
BYBLOCK
70
0
0
LTYPE
5
15
100
AcDbSymbolTableRecord
100
AcDbLinetypeTableRecord
2
BYLAYER
70
0
0
LTYPE
5
16
100
AcDbSymbolTableRecord
100
AcDbLinetypeTableRecord
2
DASHED
70
0
3
Dashed __ __ __ __ __ __ __ __ __ __ __ __ __ _
72
65
73
2
40
0.75
49
0.5
74
0
49
-0.25
74
0
0
ENDTAB
0
TABLE
2
LAYER
5
2
100
AcDbSymbolTable
70
2
0
LAYER
5
50
100
AcDbSymbolTableRecord
100
AcDbLayerTableRecord
2
0
70
0
62
7
6
CONTINUOUS
0
ENDTAB
0
TABLE
2
STYLE
5
3
100
AcDbSymbolTable
70
1
0
STYLE
5
11
100
AcDbSymbolTableRecord
100
AcDbTextStyleTableRecord
2
STANDARD
70
0
0
ENDTAB
0
TABLE
2
VIEW
5
6
100
AcDbSymbolTable
70
0
0
ENDTAB
0
TABLE
2
UCS
5
7
100
AcDbSymbolTable
70
0
0
ENDTAB
0
TABLE
2
APPID
5
9
100
AcDbSymbolTable
70
2
0
APPID
5
12
100
AcDbSymbolTableRecord
100
AcDbRegAppTableRecord
2
ACAD
70
0
0
ENDTAB
0
TABLE
2
DIMSTYLE
5
A
100
AcDbSymbolTable
70
1
0
ENDTAB
0
TABLE
2
BLOCK_RECORD
5
1
100
AcDbSymbolTable
70
1
0
BLOCK_RECORD
5
1F
100
AcDbSymbolTableRecord
100
AcDbBlockTableRecord
2
*MODEL_SPACE
0
BLOCK_RECORD
5
1B
100
AcDbSymbolTableRecord
100
AcDbBlockTableRecord
2
*PAPER_SPACE
0
ENDTAB
0
ENDSEC
0
SECTION
2
BLOCKS
0
BLOCK
5
20
100
AcDbEntity
100
AcDbBlockBegin
2
*MODEL_SPACE
0
ENDBLK
5
21
100
AcDbEntity
100
AcDbBlockEnd
0
BLOCK
5
1C
100
AcDbEntity
100
AcDbBlockBegin
2
*PAPER_SPACE
0
ENDBLK
5
1D
100
AcDbEntity
100
AcDbBlockEnd
0
ENDSEC
0
SECTION
2
ENTITIES
0
LWPOLYLINE
5
100
100
AcDbEntity
8
0
100
AcDbPolyline
90
12
70
1
43
0.0
10
136.25000000000014
20
16.100000000000101
42
0.41421356237309503
10
139.25000000000017
20
13.100000000000076
10
223.90000000000015
20
13.100000000000072
42
0.41421356237308854
10
226.90000000000015
20
16.100000000000072
10
226.90000000000015
20
383.89999999999998
42
0.41421356237308116
10
223.90000000000015
20
386.89999999999998
10
78.800000000000125
20
386.90000000000003
42
0.41421356237309503
10
75.800000000000153
20
383.90000000000009
10
75.800000000000139
20
210.60000000000002
42
0.41421356237309503
10
78.800000000000153
20
207.60000000000002
10
134.75000000000017
20
207.60000000000002
42
-0.41421356237309503
10
136.25000000000017
20
206.09999999999999
0
LWPOLYLINE
5
101
100
AcDbEntity
8
0
100
AcDbPolyline
90
6
70
1
43
0.0
10
187.42868420986872
20
200.2372497535938
10
192.19182393070622
20
197.48724975363373
10
192.19182393075232
20
191.98724975363371
10
187.42868420996098
20
189.23724975359377
10
182.66554448912348
20
191.98724975355384
10
182.66554448907738
20
197.48724975355387
0
LWPOLYLINE
5
102
100
AcDbEntity
8
0
100
AcDbPolyline
90
6
70
1
43
0.0
10
174.48131579013179
20
43.258750246453275
10
179.24445551096926
20
40.508750246493207
10
179.24445551101539
20
35.008750246493193
10
174.48131579022402
20
32.258750246453261
10
169.71817606938654
20
35.008750246413328
10
169.71817606934042
20
40.508750246413342
0
LWPOLYLINE
5
103
100
AcDbEntity
8
0
100
AcDbPolyline
90
6
70
1
43
0.0
10
161.53394736889118
20
65.684250175920766
10
166.29708708972868
20
62.934250175960699
10
166.29708708977478
20
57.434250175960685
10
161.53394736898343
20
54.684250175920752
10
156.77080764814596
20
57.43425017588082
10
156.77080764809983
20
62.934250175880834
0
LWPOLYLINE
5
104
100
AcDbEntity
8
0
100
AcDbPolyline
90
4
70
1
43
0.0
10
142.40000000000015
20
76.731239839796359
10
146.87603445805578
20
74.147000140585931
10
146.87603445810191
20
68.647000140585931
10
142.40000000000015
20
66.062760441248813
0
LWPOLYLINE
5
105
100
AcDbEntity
8
0
100
AcDbPolyline
90
6
70
1
43
0.0
10
148.58657894802656
20
43.258750246236247
10
153.34971866886403
20
40.508750246276179
10
153.34971866891013
20
35.008750246276172
10
148.58657894811876
20
32.258750246236232
10
143.82343922728128
20
35.008750246196307
10
143.82343922723518
20
40.508750246196314
0
LWPOLYLINE
5
106
100
AcDbEntity
8
0
100
AcDbPolyline
90
6
70
1
43
0.0
10
200.37605263223699
20
43.258750246670303
10
205.13919235307446
20
40.508750246710228
10
205.13919235312059
20
35.008750246710221
10
200.37605263232922
20
32.258750246670289
10
195.61291291149175
20
35.008750246630356
10
195.61291291144562
20
40.508750246630363
0
LWPOLYLINE
5
107
100
AcDbEntity
8
0
100
AcDbPolyline
90
6
70
1
43
0.0
10
206.84973684266936
20
54.471500211512556
10
211.61287656350683
20
51.721500211552481
10
211.61287656355296
20
46.221500211552481
10
206.84973684276159
20
43.471500211512542
10
202.08659712192411
20
46.221500211472616
10
202.08659712187799
20
51.721500211472616
0
LWPOLYLINE
5
108
100
AcDbEntity
8
0
100
AcDbPolyline
90
5
70
1
43
0.0
10
182.6655444900432
20
82.24800000000009
10
192.19182393167205
20
82.24800000000009
10
192.19182393169208
20
79.859750105753719
10
187.42868421090071
20
77.109750105713772
10
182.66554449006324
20
79.859750105673854
0
LWPOLYLINE
5
109
100
AcDbEntity
8
0
100
AcDbPolyline
90
6
70
1
43
0.0
10
206.84973684144595
20
200.44999971854452
10
202.08659712060847
20
203.19999971850461
10
202.0865971205674
20
208.0999999999992
10
202.90000000000043
20
208.0999999999992
42
-0.20598992202203534
10
211.61287656222765
20
204.35141091034583
10
211.61287656223732
20
203.19999971858448
0
LWPOLYLINE
5
110
100
AcDbEntity
8
0
100
AcDbPolyline
90
5
70
1
43
0.0
10
193.90236842039332
20
200.449999718436
10
189.13922869955584
20
203.19999971839607
10
189.13922869951477
20
208.09999999999943
10
198.66550814114362
20
208.09999999999928
10
198.66550814118469
20
203.19999971847594
0
LWPOLYLINE
5
111
100
AcDbEntity
8
0
100
AcDbPolyline
90
6
70
1
43
0.0
10
193.90236842067696
20
166.59899985928405
10
198.66550814151447
20
163.84899985932395
10
198.66550814156057
20
158.34899985932395
10
193.90236842076919
20
155.59899985928405
10
189.13922869993172
20
158.34899985924409
10
189.13922869988562
20
163.84899985924409
0
LWPOLYLINE
5
112
100
AcDbEntity
8
0
100
AcDbPolyline
90
5
70
1
43
0.0
10
180.95499999934071
20
200.44999971832752
10
176.19186027850321
20
203.19999971828759
10
176.19186027846214
20
208.09999999999962
10
185.71813972009099
20
208.09999999999945
10
185.71813972013206
20
203.19999971836745
0
LWPOLYLINE
5
113
100
AcDbEntity
8
0
100
AcDbPolyline
90
6
70
1
43
0.0
10
155.06026315751913
20
166.59899985895851
10
159.8234028783566
20
163.84899985899841
10
159.82340287840273
20
158.34899985899841
10
155.06026315761136
20
155.59899985895851
10
150.29712343677389
20
158.34899985891855
10
150.29712343672776
20
163.84899985891855
0
LWPOLYLINE
5
114
100
AcDbEntity
8
0
100
AcDbPolyline
90
6
70
1
43
0.0
10
155.06026315733118
20
189.02449978853451
10
159.82340287816865
20
186.27449978857442
10
159.82340287821478
20
180.77449978857445
10
155.06026315742341
20
178.02449978853448
10
150.29712343658593
20
180.77449978849458
10
150.29712343653981
20
186.27449978849455
0
LWPOLYLINE
5
115
100
AcDbEntity
8
0
100
AcDbPolyline
90
3
70
1
43
0.0
10
146.87603445695535
20
205.4482587954696
42
0.11168883430796563
10
143.58521720621792
20
201.30004549242713
10
146.8760344569742
20
203.19999971804194
0
LWPOLYLINE
5
116
100
AcDbEntity
8
0
100
AcDbPolyline
90
5
70
1
43
0.0
10
195.61291290864312
20
374.89999999999998
10
205.13919235027197
20
374.89999999999998
10
205.13919235030136
20
371.39124919035021
10
200.37605262951001
20
368.6412491903103
10
195.61291290867251
20
371.39124919027034
0
LWPOLYLINE
5
117
100
AcDbEntity
8
0
100
AcDbPolyline
90
5
70
1
43
0.0
10
169.71817606653789
20
374.89999999999998
10
179.24445550816674
20
374.89999999999998
10
179.24445550819615
20
371.39124919013318
10
174.48131578740481
20
368.64124919009328
10
169.71817606656731
20
371.39124919005332
0
LWPOLYLINE
5
118
100
AcDbEntity
8
0
100
AcDbPolyline
90
5
70
1
43
0.0
10
143.82343922443263
20
374.90000000000003
10
153.34971866606148
20
374.89999999999998
10
153.34971866609089
20
371.39124918991621
10
148.58657894529952
20
368.64124918987625
10
143.82343922446205
20
371.39124918983634
0
LWPOLYLINE
5
119
100
AcDbEntity
8
0
100
AcDbPolyline
90
5
70
1
43
0.0
10
117.9287023823274
20
374.90000000000003
10
127.45498182395625
20
374.90000000000003
10
127.45498182398566
20
371.39124918969912
10
122.6918421031943
20
368.64124918965922
10
117.92870238235682
20
371.39124918961926
0
LWPOLYLINE
5
120
100
AcDbEntity
8
0
100
AcDbPolyline
90
6
70
1
43
0.0
10
95.000001370906588
20
374.90000000000003
10
101.56024498185103
20
374.90000000000003
10
101.56024498188044
20
371.3912491894821
10
96.797105261089072
20
368.64124918944214
10
92.0339655402516
20
371.39124918940229
10
92.033965540228749
20
374.11561419692214
42
-0.12999354091822776
0
LWPOLYLINE
5
121
100
AcDbEntity
8
0
100
AcDbPolyline
90
5
70
1
43
0.0
10
98.507649750825763
20
365.67849922466849
10
103.27078947161712
20
368.4284992247085
10
108.03392919245461
20
365.67849922474835
10
108.0339291924779
20
362.89999999999998
10
98.507649750849055
20
362.89999999999998
0
LWPOLYLINE
5
122
100
AcDbEntity
8
0
100
AcDbPolyline
90
5
70
1
43
0.0
10
124.40238659293101
20
365.67849922488557
10
129.16552631372238
20
368.42849922492547
10
133.92866603455985
20
365.67849922496544
10
133.92866603458313
20
362.89999999999998
10
124.4023865929543
20
362.89999999999998
0
LWPOLYLINE
5
123
100
AcDbEntity
8
0
100
AcDbPolyline
90
5
70
1
43
0.0
10
150.29712343503621
20
365.67849922510254
10
155.06026315582758
20
368.42849922514245
10
159.82340287666506
20
365.67849922518241
10
159.82340287668836
20
362.90000000000009
10
150.29712343505952
20
362.89999999999998
0
LWPOLYLINE
5
124
100
AcDbEntity
8
0
100
AcDbPolyline
90
5
70
1
43
0.0
10
176.19186027714147
20
365.67849922531957
10
180.95499999793282
20
368.42849922535947
10
185.71813971877032
20
365.67849922539943
10
185.71813971879362
20
362.90000000000009
10
176.19186027716478
20
362.90000000000009
0
LWPOLYLINE
5
125
100
AcDbEntity
8
0
100
AcDbPolyline
90
6
70
1
43
0.0
10
211.61287656087552
20
365.67849922561652
10
211.6128765608934
20
363.54833663564733
42
-0.11783335186509701
10
208.90000000000003
20
362.90000000000009
10
202.08659711926998
20
362.90000000000009
10
202.08659711924668
20
365.6784992255366
10
206.84973684003808
20
368.42849922557656
0
LWPOLYLINE
5
126
100
AcDbEntity
8
0
100
AcDbPolyline
90
6
70
1
43
0.0
10
148.58657894671092
20
200.23724975326826
10
153.34971866754839
20
197.48724975330816
10
153.34971866759449
20
191.98724975330819
10
148.58657894680312
20
189.23724975326823
10
143.82343922596564
20
191.98724975322833
10
143.82343922591954
20
197.4872497532283
0
LWPOLYLINE
5
127
100
AcDbEntity
8
0
100
AcDbPolyline
90
6
70
1
43
0.0
10
161.53394736776352
20
200.23724975337674
10
166.29708708860102
20
197.48724975341671
10
166.29708708864712
20
191.98724975341668
10
161.53394736785575
20
189.23724975337674
10
156.77080764701824
20
191.98724975333681
10
156.77080764697214
20
197.48724975333684
0
LWPOLYLINE
5
128
100
AcDbEntity
8
0
100
AcDbPolyline
90
6
70
1
43
0.0
10
161.53394736795147
20
177.81174982380077
10
166.29708708878894
20
175.06174982384067
10
166.29708708883504
20
169.5617498238407
10
161.5339473680437
20
166.81174982380074
10
156.7708076472062
20
169.56174982376083
10
156.7708076471601
20
175.06174982376081
0
LWPOLYLINE
5
129
100
AcDbEntity
8
0
100
AcDbPolyline
90
8
70
1
43
0.0
10
156.77080764734805
20
152.63624989418483
10
161.53394736813939
20
155.38624989422476
10
166.29708708897687
20
152.63624989426469
10
166.29708708899926
20
149.96757251329942
42
0.062281454349407704
10
163.85478858809591
20
149.05932075470713
42
0.003085203971915973
10
163.45118380191303
20
148.84579775548144
42
-0.21305744357176748
10
158.57284663012902
20
148.48933130170997
42
0.060259642260158966
10
156.77080764737934
20
148.90466101394591
0
LWPOLYLINE
5
130
100
AcDbEntity
8
0
100
AcDbPolyline
90
6
70
1
43
0.0
10
200.37605263110933
20
177.81174982412631
10
205.1391923519468
20
175.06174982416624
10
205.13919235199293
20
169.56174982416621
10
200.37605263120156
20
166.81174982412628
10
195.61291291036409
20
169.56174982408635
10
195.61291291031796
20
175.06174982408638
0
LWPOLYLINE
5
131
100
AcDbEntity
8
0
100
AcDbPolyline
90
8
70
1
43
0.0
10
195.61291291050591
20
152.63624989451037
10
200.37605263129728
20
155.3862498945503
10
205.13919235213476
20
152.63624989459024
10
205.13919235216605
20
148.90466101389748
42
0.06025964224417911
10
203.33715336990224
20
148.48933130172117
42
-0.21305744357040132
10
198.45881619814759
20
148.84579775549864
42
0.0030852039716730622
10
198.05521141201945
20
149.05932075475076
42
0.062281454363285381
10
195.61291291052828
20
149.96757251343286
0
LWPOLYLINE
5
132
100
AcDbEntity
8
0
100
AcDbPolyline
90
6
70
1
43
0.0
10
206.84973684248138
20
76.897000141088554
10
211.61287656331888
20
74.147000141128487
10
211.61287656336498
20
68.647000141128473
10
206.84973684257361
20
65.89700014108854
10
202.08659712173613
20
68.647000141048608
10
202.08659712169003
20
74.147000141048622
0
LWPOLYLINE
5
133
100
AcDbEntity
8
0
100
AcDbPolyline
90
6
70
1
43
0.0
10
180.95500000037617
20
76.897000140871526
10
185.71813972121365
20
74.147000140911459
10
185.71813972125977
20
68.647000140911445
10
180.9550000004684
20
65.897000140871512
10
176.19186027963093
20
68.64700014083158
10
176.1918602795848
20
74.147000140831594
0
LWPOLYLINE
5
134
100
AcDbEntity
8
0
100
AcDbPolyline
90
7
70
1
43
0.0
10
214.05729749591873
20
32.68245400843761
42
0.094528992263020389
10
214.90000000000015
20
37.10000000000008
10
214.90000000000015
20
42.348511967514412
10
213.32342105328962
20
43.25875024677881
10
208.56028133249825
20
40.50875024673887
10
208.56028133254438
20
35.00875024673887
10
213.32342105338185
20
32.258750246778796
0
LWPOLYLINE
5
135
100
AcDbEntity
8
0
100
AcDbPolyline
90
6
70
1
43
0.0
10
193.90236842161673
20
54.471500211404049
10
198.6655081424542
20
51.721500211443974
10
198.66550814250033
20
46.221500211443967
10
193.90236842170896
20
43.471500211404035
10
189.13922870087148
20
46.221500211364102
10
189.13922870082536
20
51.721500211364109
0
LWPOLYLINE
5
136
100
AcDbEntity
8
0
100
AcDbPolyline
90
3
70
1
43
0.0
10
146.87603445843166
20
29.296000281433923
10
146.87603445844462
20
27.75174120333185
42
-0.087153733570518199
10
144.14075958218041
20
30.875211967514637
0
LWPOLYLINE
5
137
100
AcDbEntity
8
0
100
AcDbPolyline
90
6
70
1
43
0.0
10
155.06026315827091
20
76.897000140654512
10
159.82340287910841
20
74.147000140694445
10
159.82340287915451
20
68.647000140694431
10
155.06026315836317
20
65.897000140654498
10
150.29712343752567
20
68.647000140614566
10
150.29712343747957
20
74.14700014061458
0
LWPOLYLINE
5
138
100
AcDbEntity
8
0
100
AcDbPolyline
90
6
70
1
43
0.0
10
155.06026315845887
20
54.471500211078514
10
159.82340287929634
20
51.721500211118439
10
159.82340287934247
20
46.221500211118432
10
155.06026315855109
20
43.471500211078499
10
150.29712343771362
20
46.221500211038567
10
150.29712343766749
20
51.721500211038574
0
LWPOLYLINE
5
139
100
AcDbEntity
8
0
100
AcDbPolyline
90
5
70
1
43
0.0
10
143.8234392265295
20
124.71074996450031
10
143.8234392264834
20
130.21074996450034
10
147.73622761498021
20
132.46979939392475
42
0.0973522005070869
10
146.95500000000015
20
128.49544871385459
10
146.95500000000015
20
122.90274250898835
0
LWPOLYLINE
5
140
100
AcDbEntity
8
0
100
AcDbPolyline
90
6
70
1
43
0.0
10
180.95499999943641
20
189.02449978875154
10
185.71813972027388
20
186.27449978879145
10
185.71813972032001
20
180.77449978879145
10
180.95499999952864
20
178.02449978875154
10
176.19186027869117
20
180.77449978871158
10
176.19186027864504
20
186.27449978871158
0
LWPOLYLINE
5
141
100
AcDbEntity
8
0
100
AcDbPolyline
90
5
70
1
43
0.0
10
143.82343922667133
20
107.78525003492432
10
146.95500000000018
20
109.59325749042442
10
146.95500000000021
20
104.00055128608599
42
0.097352200517060838
10
147.73622761513738
20
100.02620060563176
10
143.82343922671743
20
102.2852500349243
0
LWPOLYLINE
5
142
100
AcDbEntity
8
0
100
AcDbPolyline
90
6
70
1
43
0.0
10
161.53394736907916
20
43.258750246344775
10
166.29708708991666
20
40.508750246384707
10
166.29708708996276
20
35.008750246384693
10
161.53394736917139
20
32.258750246344761
10
156.77080764833389
20
35.008750246304828
10
156.77080764828779
20
40.508750246304842
0
LWPOLYLINE
5
143
100
AcDbEntity
8
0
100
AcDbPolyline
90
6
70
1
43
0.0
10
168.00763157932354
20
76.897000140763026
10
172.77077130016102
20
74.147000140802945
10
172.77077130020714
20
68.647000140802945
10
168.00763157941577
20
65.897000140763012
10
163.2444918585783
20
68.64700014072308
10
163.24449185853217
20
74.14700014072308
0
LWPOLYLINE
5
144
100
AcDbEntity
8
0
100
AcDbPolyline
90
6
70
1
43
0.0
10
148.58657894783858
20
65.684250175812252
10
153.34971866867608
20
62.934250175852185
10
153.34971866872218
20
57.434250175852178
10
148.5865789479308
20
54.684250175812245
10
143.82343922709333
20
57.434250175772313
10
143.82343922704723
20
62.93425017577232
0
LWPOLYLINE
5
145
100
AcDbEntity
8
0
100
AcDbPolyline
90
6
70
1
43
0.0
10
159.82340287948429
20
29.29600028154244
10
159.82340287951951
20
25.10000000000008
10
154.40000000000015
20
25.100000000000069
42
-0.087458166560329884
10
150.29712343788458
20
25.823191767346533
10
150.29712343785545
20
29.296000281462575
10
155.06026315864682
20
32.046000281502515
0
LWPOLYLINE
5
146
100
AcDbEntity
8
0
100
AcDbPolyline
90
5
70
1
43
0.0
10
198.66550814264215
20
29.296000281867975
10
198.66550814267731
20
25.100000000000069
10
189.13922870104847
20
25.100000000000072
10
189.13922870101331
20
29.29600028178811
10
193.90236842180468
20
32.046000281828043
0
LWPOLYLINE
5
147
100
AcDbEntity
8
0
100
AcDbPolyline
90
6
70
1
43
0.0
10
214.90000000000015
20
64.774011896981904
10
214.90000000000015
20
55.594488455709701
10
213.3234210531939
20
54.684250176354794
10
208.56028133235642
20
57.434250176314869
10
208.56028133231032
20
62.934250176314876
10
213.3234210531017
20
65.684250176354809
0
LWPOLYLINE
5
148
100
AcDbEntity
8
0
100
AcDbPolyline
90
6
70
1
43
0.0
10
193.90236842142878
20
76.897000140980055
10
198.66550814226625
20
74.147000141019973
10
198.66550814231235
20
68.647000141019973
10
193.90236842152098
20
65.897000140980026
10
189.1392287006835
20
68.647000140940108
10
189.1392287006374
20
74.147000140940108
0
LWPOLYLINE
5
149
100
AcDbEntity
8
0
100
AcDbPolyline
90
7
70
1
43
0.0
10
214.90000000000015
20
196.09999999999926
10
214.90000000000015
20
190.14748803381678
10
213.32342105206621
20
189.2372497538108
10
208.56028133122874
20
191.98724975377087
10
208.56028133118261
20
197.48724975377087
10
213.32342105197398
20
200.23724975381083
10
214.36771764379068
20
199.63432483542334
42
-0.074879629848209353
0
LWPOLYLINE
5
150
100
AcDbEntity
8
0
100
AcDbPolyline
90
6
70
1
43
0.0
10
200.37605263092135
20
200.23724975370229
10
205.13919235175882
20
197.48724975374222
10
205.13919235180495
20
191.98724975374219
10
200.37605263101358
20
189.23724975370226
10
195.61291291017611
20
191.98724975366233
10
195.61291291012998
20
197.48724975366235
0
LWPOLYLINE
5
151
100
AcDbEntity
8
0
100
AcDbPolyline
90
6
70
1
43
0.0
10
193.90236842048904
20
189.02449978886006
10
198.66550814132651
20
186.27449978889999
10
198.66550814137264
20
180.77449978889996
10
193.90236842058127
20
178.02449978886003
10
189.1392286997438
20
180.77449978882009
10
189.13922869969767
20
186.27449978882012
0
LWPOLYLINE
5
152
100
AcDbEntity
8
0
100
AcDbPolyline
90
6
70
1
43
0.0
10
174.48131578881615
20
200.23724975348529
10
179.24445550965362
20
197.48724975352519
10
179.24445550969975
20
191.98724975352519
10
174.48131578890838
20
189.23724975348529
10
169.7181760680709
20
191.98724975344533
10
169.71817606802477
20
197.48724975344533
0
LWPOLYLINE
5
153
100
AcDbEntity
8
0
100
AcDbPolyline
90
4
70
1
43
0.0
10
142.40000000000018
20
166.4332395576663
10
146.876034457304
20
163.84899985888993
10
146.8760344573501
20
158.34899985888993
10
142.40000000000015
20
155.76476015998685
0
LWPOLYLINE
5
154
100
AcDbEntity
8
0
100
AcDbPolyline
90
6
70
1
43
0.0
10
148.58657894689884
20
177.81174982369225
10
153.34971866773631
20
175.06174982373216
10
153.34971866778244
20
169.56174982373216
10
148.58657894699107
20
166.81174982369225
10
143.8234392261536
20
169.56174982365229
10
143.82343922610747
20
175.06174982365229
0
LWPOLYLINE
5
155
100
AcDbEntity
8
0
100
AcDbPolyline
90
6
70
1
43
0.0
10
150.29712343639798
20
203.19999971807056
10
150.29712343636297
20
207.3768082320999
42
-0.087458166594323372
10
154.40000000000023
20
208.09999999999997
10
159.82340287798573
20
208.09999999999988
10
159.82340287802683
20
203.19999971815042
10
155.06026315723545
20
200.44999971811049
0
LWPOLYLINE
5
156
100
AcDbEntity
8
0
100
AcDbPolyline
90
5
70
1
43
0.0
10
189.13922869819407
20
365.67849922542814
10
193.90236841898545
20
368.42849922546804
10
198.66550813982292
20
365.67849922550801
10
198.66550813984622
20
362.90000000000009
10
189.13922869821738
20
362.90000000000009
0
LWPOLYLINE
5
157
100
AcDbEntity
8
0
100
AcDbPolyline
90
5
70
1
43
0.0
10
163.24449185608884
20
365.67849922521106
10
168.00763157688021
20
368.42849922525102
10
172.77077129771769
20
365.67849922529092
10
172.77077129774099
20
362.90000000000009
10
163.24449185611215
20
362.90000000000009
0
LWPOLYLINE
5
158
100
AcDbEntity
8
0
100
AcDbPolyline
90
5
70
1
43
0.0
10
137.34975501398361
20
365.67849922499408
10
142.11289473477495
20
368.42849922503405
10
146.87603445561246
20
365.67849922507389
10
146.87603445563573
20
362.89999999999998
10
137.34975501400689
20
362.89999999999998
0
LWPOLYLINE
5
159
100
AcDbEntity
8
0
100
AcDbPolyline
90
5
70
1
43
0.0
10
111.45501817187838
20
365.67849922477706
10
116.21815789266975
20
368.42849922481696
10
120.98129761350722
20
365.67849922485692
10
120.98129761353051
20
362.89999999999998
10
111.45501817190167
20
362.89999999999998
0
LWPOLYLINE
5
160
100
AcDbEntity
8
0
100
AcDbPolyline
90
5
70
1
43
0.0
10
89.115017531173379
20
367.73082712737624
10
90.323421050564505
20
368.42849922459993
10
95.086560771401992
20
365.67849922463984
10
95.086560771425269
20
362.89999999999998
10
95.000001370906588
20
362.89999999999998
42
-0.35787132901662078
0
LWPOLYLINE
5
161
100
AcDbEntity
8
0
100
AcDbPolyline
90
5
70
1
43
0.0
10
104.98133396127479
20
374.90000000000003
10
114.50761340290363
20
374.90000000000003
10
114.50761340293305
20
371.39124918959061
10
109.74447368214169
20
368.64124918955071
10
104.9813339613042
20
371.39124918951075
0
LWPOLYLINE
5
162
100
AcDbEntity
8
0
100
AcDbPolyline
90
5
70
1
43
0.0
10
130.87607080338003
20
374.90000000000003
10
140.40235024500888
20
374.90000000000003
10
140.40235024503829
20
371.39124918980764
10
135.63921052424692
20
368.64124918976768
10
130.87607080340945
20
371.39124918972777
0
LWPOLYLINE
5
163
100
AcDbEntity
8
0
100
AcDbPolyline
90
5
70
1
43
0.0
10
156.77080764548526
20
374.89999999999998
10
166.29708708711411
20
374.89999999999998
10
166.29708708714355
20
371.39124919002472
10
161.53394736635215
20
368.64124918998471
10
156.77080764551468
20
371.3912491899448
0
LWPOLYLINE
5
164
100
AcDbEntity
8
0
100
AcDbPolyline
90
5
70
1
43
0.0
10
182.66554448759049
20
374.89999999999998
10
192.19182392921934
20
374.89999999999998
10
192.19182392924876
20
371.39124919024169
10
187.42868420845738
20
368.64124919020179
10
182.66554448761991
20
371.39124919016183
0
LWPOLYLINE
5
165
100
AcDbEntity
8
0
100
AcDbPolyline
90
5
70
1
43
0.0
10
214.86660020353511
20
369.53220408981258
42
0.38362209441704259
10
208.90000000000012
20
374.89999999999998
10
208.56028132969578
20
374.89999999999998
10
208.56028132972517
20
371.39124919037891
10
213.32342105056262
20
368.64124919041888
0
LWPOLYLINE
5
166
100
AcDbEntity
8
0
100
AcDbPolyline
90
4
70
1
43
0.0
10
142.40000000000018
20
188.85873948713379
10
146.87603445711605
20
186.2744997884659
10
146.87603445716215
20
180.7744997884659
10
142.40000000000018
20
178.1902600896714
0
LWPOLYLINE
5
167
100
AcDbEntity
8
0
100
AcDbPolyline
90
5
70
1
43
0.0
10
168.00763157828808
20
200.44999971821903
10
163.24449185745061
20
203.19999971817907
10
163.24449185740951
20
208.0999999999998
10
172.77077129903836
20
208.09999999999968
10
172.77077129907946
20
203.19999971825894
0
LWPOLYLINE
5
168
100
AcDbEntity
8
0
100
AcDbPolyline
90
6
70
1
43
0.0
10
168.00763157838378
20
189.024499788643
10
172.77077129922128
20
186.27449978868296
10
172.77077129926738
20
180.77449978868293
10
168.00763157847601
20
178.024499788643
10
163.24449185763854
20
180.77449978860307
10
163.24449185759244
20
186.27449978860309
0
LWPOLYLINE
5
169
100
AcDbEntity
8
0
100
AcDbPolyline
90
6
70
1
43
0.0
10
168.00763157857176
20
166.59899985906702
10
172.77077129940923
20
163.84899985910693
10
172.77077129945536
20
158.34899985910693
10
168.00763157866399
20
155.59899985906699
10
163.24449185782652
20
158.34899985902706
10
163.24449185778039
20
163.84899985902706
0
LWPOLYLINE
5
170
100
AcDbEntity
8
0
100
AcDbPolyline
90
6
70
1
43
0.0
10
206.84973684154164
20
189.02449978896854
10
211.61287656237914
20
186.27449978900847
10
211.61287656242524
20
180.77449978900847
10
206.8497368416339
20
178.02449978896851
10
202.0865971207964
20
180.77449978892861
10
202.0865971207503
20
186.27449978892861
0
LWPOLYLINE
5
171
100
AcDbEntity
8
0
100
AcDbPolyline
90
5
70
1
43
0.0
10
192.19182393108213
20
152.63624989448172
10
192.19182393110216
20
150.24800000000022
10
182.66554448947332
20
150.24800000000016
10
182.66554448945328
20
152.63624989440186
10
187.42868421024465
20
155.38624989444179
0
LWPOLYLINE
5
172
100
AcDbEntity
8
0
100
AcDbPolyline
90
8
70
1
43
0.0
10
200.37605263195334
20
77.109750105822286
10
195.61291291111587
20
79.859750105782354
10
195.61291291109347
20
82.528427486721966
42
0.062281454346232085
10
198.055211411871
20
83.436679245274405
42
0.0030852039722893362
10
198.45881619810297
20
83.650202244524493
42
-0.21305744357112252
10
203.33715336987311
20
84.006668698289701
42
0.060259642263126648
10
205.13919235271342
20
83.591338986044548
10
205.13919235274471
20
79.859750105862219
0
LWPOLYLINE
5
173
100
AcDbEntity
8
0
100
AcDbPolyline
90
6
70
1
43
0.0
10
200.37605263204907
20
65.684250176246309
10
205.13919235288654
20
62.934250176286227
10
205.13919235293264
20
57.434250176286227
10
200.3760526321413
20
54.684250176246287
10
195.61291291130379
20
57.434250176206362
10
195.61291291125769
20
62.934250176206362
0
LWPOLYLINE
5
174
100
AcDbEntity
8
0
100
AcDbPolyline
90
6
70
1
43
0.0
10
211.61287656369478
20
29.296000281976493
10
211.61287656369853
20
28.848589091206609
42
-0.20598992206849584
10
202.90000000000018
20
25.100000000000069
10
202.0865971221011
20
25.100000000000069
10
202.08659712206594
20
29.296000281896628
10
206.84973684285728
20
32.046000281936564
0
LWPOLYLINE
5
175
100
AcDbEntity
8
0
100
AcDbPolyline
90
6
70
1
43
0.0
10
187.42868421118436
20
43.258750246561789
10
192.19182393202186
20
40.508750246601721
10
192.19182393206796
20
35.008750246601714
10
187.42868421127662
20
32.258750246561775
10
182.66554449043912
20
35.008750246521849
10
182.66554449039302
20
40.508750246521856
0
LWPOLYLINE
5
176
100
AcDbEntity
8
0
100
AcDbPolyline
90
4
70
1
43
0.0
10
142.40000000000015
20
54.30573991032886
10
146.87603445824374
20
51.721500211009925
10
146.87603445828984
20
46.221500211009918
10
142.40000000000015
20
43.637260511564293
0
LWPOLYLINE
5
177
100
AcDbEntity
8
0
100
AcDbPolyline
90
8
70
1
43
0.0
10
161.53394736879548
20
77.109750105496744
10
156.77080764795801
20
79.859750105456811
10
156.77080764792672
20
83.591338986112618
42
0.060259642243217573
10
158.57284663015776
20
84.006668698300643
42
-0.21305744357244494
10
163.451183801957
20
83.650202244541077
42
0.0030852039716438235
10
163.85478858808168
20
83.436679245290932
42
0.062281454363621445
10
166.29708708956446
20
82.528427486563558
10
166.29708708958685
20
79.859750105536676
0
LWPOLYLINE
5
178
100
AcDbEntity
8
0
100
AcDbPolyline
90
6
70
1
43
0.0
10
168.0076315795115
20
54.471500211187021
10
172.77077130034897
20
51.721500211226953
10
172.7707713003951
20
46.221500211226939
10
168.00763157960372
20
43.471500211187006
10
163.24449185876625
20
46.221500211147074
10
163.24449185872012
20
51.721500211147088
0
LWPOLYLINE
5
179
100
AcDbEntity
8
0
100
AcDbPolyline
90
4
70
1
43
0.0
10
142.40000000000015
20
121.58223969873131
10
146.87603445767988
20
118.99799999973793
10
146.87603445772601
20
113.49799999973791
10
142.40000000000015
20
110.91376030061782
0
LWPOLYLINE
5
180
100
AcDbEntity
8
0
100
AcDbPolyline
90
6
70
1
43
0.0
10
187.4286842100567
20
177.8117498240178
10
192.1918239308942
20
175.0617498240577
10
192.1918239309403
20
169.5617498240577
10
187.42868421014893
20
166.8117498240178
10
182.66554448931146
20
169.56174982397783
10
182.66554448926536
20
175.06174982397783
0
LWPOLYLINE
5
181
100
AcDbEntity
8
0
100
AcDbPolyline
90
11
70
1
43
0.0
10
180.41154273187612
20
254.55571710888961
42
0.1769822395007081
10
214.55715388043836
20
248.57965799460644
42
0.36325079348988587
10
219.50024958555969
20
254.48583724276125
10
219.50024958568582
20
322.12913705309069
42
0.13093735544767193
10
217.90938587396411
20
328.09988924459185
42
0.085576515071581788
10
201.0063535110927
20
348.51662052044571
42
0.65466741680972662
10
197.70645013733127
20
346.91947823383134
42
-0.14165227971888389
10
190.18043531381889
20
316.45154273187694
10
168.4365334793894
20
278.79000000004993
42
-0.15131338976740935
10
159.31805266209042
20
270.34876400765609
42
0.60334205382396344
10
159.18167672515892
20
266.81278596272722
0
LWPOLYLINE
5
182
100
AcDbEntity
8
0
100
AcDbPolyline
90
11
70
1
43
0.0
10
184.98428289111297
20
319.45154273187643
42
0.17698223950071176
10
190.96034200539648
20
353.59715388043924
42
0.36325079348988448
10
185.05416275724161
20
358.54024958556056
10
117.41086294689237
20
358.54024958568675
42
0.1309373554467772
10
111.44011075542785
20
356.94938587398599
42
0.08557651507202646
10
91.023379479437494
20
340.04635351109221
42
0.65466741681108331
10
92.620521766053628
20
336.74645013732828
42
-0.14165227971941446
10
123.08845726812601
20
329.22043531382076
10
160.74999999998687
20
307.47653347944981
42
-0.15131338976569816
10
169.19123599234644
20
298.3580526620965
42
0.60334205382452444
10
172.72721403727672
20
298.22167672516201
0
LWPOLYLINE
5
183
100
AcDbEntity
8
0
100
AcDbPolyline
90
11
70
1
43
0.0
10
120.08845726812606
20
324.02428289111407
42
0.17698223950071421
10
85.942846119562688
20
330.0003420053971
42
0.36325079348988148
10
80.999750414441507
20
324.09416275724226
10
80.999750414315372
20
256.45086294689736
42
0.13093735544698526
10
82.590614126020967
20
250.48011075542431
42
0.085576515072170317
10
99.49364648891094
20
230.0633794794845
42
0.65466741681029728
10
102.79354986267285
20
231.66052176610089
42
-0.14165227971920472
10
110.31956468618228
20
262.12845726812679
10
132.06346652044354
20
299.7900000000509
42
-0.15131338976630801
10
141.18194733789562
20
308.23123599233145
42
0.60334205382835526
10
141.3183232748504
20
311.7672140372714
0
LWPOLYLINE
5
184
100
AcDbEntity
8
0
100
AcDbPolyline
90
11
70
1
43
0.0
10
115.51571710888896
20
259.12845726812685
42
0.17698223950070874
10
109.53965799460573
20
224.98284611956453
42
0.36325079348988587
10
115.44583724276055
20
220.03975041444318
10
183.08913705308561
20
220.03975041431704
42
0.13093735544788129
10
189.05988924459533
20
221.63061412604372
42
0.085576515071717971
10
209.47662052039689
20
238.53364648890948
42
0.65466741680892326
10
207.87947823378244
20
241.83354986266892
42
-0.14165227971866429
10
177.41154273187615
20
249.35956468618301
10
139.74999999998656
20
271.10346652050407
42
-0.15131338976803702
10
131.30876400767107
20
280.22194733790275
42
0.60334205382781403
10
127.77278596273254
20
280.35832327485457
0
LWPOLYLINE
5
185
100
AcDbEntity
8
0
100
AcDbPolyline
90
16
70
1
43
0.0
10
151.45500000000021
20
104.00055128608601
10
151.45500000000015
20
128.49544871385461
42
-0.12069049966661059
10
152.13424528296537
20
131.26845596983893
42
-0.15367276673639563
10
165.9345440300898
20
145.06875471697552
42
-0.12069049966804922
10
168.70755128608155
20
145.74800000000005
10
193.20244871401073
20
145.74800000000022
42
-0.12069049966805159
10
195.97545597002525
20
145.06875471701929
42
-0.15367276673446834
10
209.77575471697043
20
131.26845597003364
42
-0.12069049966852377
10
210.45500000000015
20
128.49544871403191
10
210.45500000000021
20
104.00055128601522
42
-0.12069049966852242
10
209.77575471701408
20
101.22754402999081
42
-0.1536727667354468
10
195.97545596989247
20
87.427245283013974
42
-0.12069049966707918
10
193.20244871392103
20
86.748000000000076
10
168.70755128606535
20
86.748000000000062
42
-0.12069049966798265
10
165.93454403007459
20
87.427245283023055
42
-0.15367276673555455
10
152.13424528301883
20
101.22754403010549
42
-0.12069049966751261
0
CIRCLE
5
186
100
AcDbEntity
8
0
100
AcDbCircle
10
87.999995595891747
20
227.00002107240138
30
1.4901146982992941e-08
40
2.5499999999999998
210
-1.4012984643248171e-45
220
1.2076367744775844e-37
230
1
0
CIRCLE
5
187
100
AcDbEntity
8
0
100
AcDbCircle
10
87.999995595891747
20
351.50002292759598
30
1.4901146982992941e-08
40
2.5499999999999998
210
-1.4012984643248171e-45
220
1.2076367744775844e-37
230
1
0
CIRCLE
5
188
100
AcDbEntity
8
0
100
AcDbCircle
10
212.4999974510863
20
227.00002107240138
30
1.4901146982992941e-08
40
2.499999999999992
210
-1.4012984643248171e-45
220
1.2076367744775844e-37
230
1
0
CIRCLE
5
189
100
AcDbEntity
8
0
100
AcDbCircle
10
212.4999974510863
20
351.50002292759598
30
1.4901146982992941e-08
40
2.499999999999992
210
-1.4012984643248171e-45
220
1.2076367744775844e-37
230
1
0
CIRCLE
5
190
100
AcDbEntity
8
0
100
AcDbCircle
10
205.95500000000015
20
141.24800000000013
30
1.4901146982992941e-08
40
1.7000000000000171
210
-1.4012984643248171e-45
220
1.2076367744775844e-37
230
1
0
CIRCLE
5
191
100
AcDbEntity
8
0
100
AcDbCircle
10
155.95500000000015
20
141.2480000000001
30
1.4901146982992941e-08
40
1.6999999999999993
210
-1.4012984643248171e-45
220
1.2076367744775844e-37
230
1
0
CIRCLE
5
192
100
AcDbEntity
8
0
100
AcDbCircle
10
155.95500000000015
20
91.248000000000047
30
1.4901146982992941e-08
40
1.6999999999999993
210
-1.4012984643248171e-45
220
1.2076367744775844e-37
230
1
0
CIRCLE
5
193
100
AcDbEntity
8
0
100
AcDbCircle
10
205.95500000000015
20
91.248000000000062
30
1.4901146982992941e-08
40
1.7000000000000171
210
-1.4012984643248171e-45
220
1.2076367744775844e-37
230
1
0
ENDSEC
0
SECTION
2
OBJECTS
0
DICTIONARY
5
C
100
AcDbDictionary
3
ACAD_GROUP
350
D
3
ACAD_MLINESTYLE
350
17
0
DICTIONARY
5
D
100
AcDbDictionary
0
DICTIONARY
5
1A
330
C
100
AcDbDictionary
0
DICTIONARY
5
17
100
AcDbDictionary
0
ENDSEC
0
EOF
