0
SECTION
2
HEADER
9
$INSUNITS
70
4
9
$ACADVER
1
AC1014
9
$HANDSEED
5
FFFF
0
ENDSEC
0
SECTION
2
TABLES
0
TABLE
2
VPORT
5
8
100
AcDbSymbolTable
0
ENDTAB
0
TABLE
2
LTYPE
5
5
100
AcDbSymbolTable
0
LTYPE
5
14
100
AcDbSymbolTableRecord
100
AcDbLinetypeTableRecord
2
BYBLOCK
70
0
0
LTYPE
5
15
100
AcDbSymbolTableRecord
100
AcDbLinetypeTableRecord
2
BYLAYER
70
0
0
LTYPE
5
16
100
AcDbSymbolTableRecord
100
AcDbLinetypeTableRecord
2
DASHED
70
0
3
Dashed __ __ __ __ __ __ __ __ __ __ __ __ __ _
72
65
73
2
40
0.75
49
0.5
74
0
49
-0.25
74
0
0
ENDTAB
0
TABLE
2
LAYER
5
2
100
AcDbSymbolTable
70
2
0
LAYER
5
50
100
AcDbSymbolTableRecord
100
AcDbLayerTableRecord
2
0
70
0
62
7
6
CONTINUOUS
0
ENDTAB
0
TABLE
2
STYLE
5
3
100
AcDbSymbolTable
70
1
0
STYLE
5
11
100
AcDbSymbolTableRecord
100
AcDbTextStyleTableRecord
2
STANDARD
70
0
0
ENDTAB
0
TABLE
2
VIEW
5
6
100
AcDbSymbolTable
70
0
0
ENDTAB
0
TABLE
2
UCS
5
7
100
AcDbSymbolTable
70
0
0
ENDTAB
0
TABLE
2
APPID
5
9
100
AcDbSymbolTable
70
2
0
APPID
5
12
100
AcDbSymbolTableRecord
100
AcDbRegAppTableRecord
2
ACAD
70
0
0
ENDTAB
0
TABLE
2
DIMSTYLE
5
A
100
AcDbSymbolTable
70
1
0
ENDTAB
0
TABLE
2
BLOCK_RECORD
5
1
100
AcDbSymbolTable
70
1
0
BLOCK_RECORD
5
1F
100
AcDbSymbolTableRecord
100
AcDbBlockTableRecord
2
*MODEL_SPACE
0
BLOCK_RECORD
5
1B
100
AcDbSymbolTableRecord
100
AcDbBlockTableRecord
2
*PAPER_SPACE
0
ENDTAB
0
ENDSEC
0
SECTION
2
BLOCKS
0
BLOCK
5
20
100
AcDbEntity
100
AcDbBlockBegin
2
*MODEL_SPACE
0
ENDBLK
5
21
100
AcDbEntity
100
AcDbBlockEnd
0
BLOCK
5
1C
100
AcDbEntity
100
AcDbBlockBegin
2
*PAPER_SPACE
0
ENDBLK
5
1D
100
AcDbEntity
100
AcDbBlockEnd
0
ENDSEC
0
SECTION
2
ENTITIES
0
LWPOLYLINE
5
100
100
AcDbEntity
8
0
100
AcDbPolyline
90
16
70
1
43
0.0
10
237.49820466786403
20
109.6655770207213
42
0.15578248133527084
10
209.66557702072507
20
137.49820466786088
42
0.11964542977064771
10
205.53898979991359
20
138.49999999999801
10
154.46101020008734
20
138.49999999999798
42
0.11964542977064771
10
150.33442297927587
20
137.49820466786088
42
0.15578248133526457
10
122.50179533213704
20
109.66557702072296
42
0.11964542977064599
10
121.50000000000091
20
105.53898979991123
10
121.50000000000063
20
54.461010200085411
42
0.11964542977064697
10
122.50179533213753
20
50.33442297927386
42
0.15578248133526745
10
150.33442297927627
20
22.501795332134861
42
0.11964542977064477
10
154.46101020008797
20
21.49999999999838
10
205.53898979991303
20
21.499999999998387
42
0.11964542977064459
10
209.6655770207247
20
22.50179533213484
42
0.15578248133527381
10
237.4982046678646
20
50.334422979275068
42
0.11964542977064102
10
238.50000000000085
20
54.461010200086633
10
238.50000000000102
20
105.53898979991004
42
0.11964542977064054
0
LWPOLYLINE
5
101
100
AcDbEntity
8
0
100
AcDbPolyline
90
16
70
1
43
0.0
10
122.50179533213796
20
290.33442297927161
42
0.15900035534020304
10
151.0589410543578
20
262.13373083474977
42
0.1164615798752426
10
153.74281050835876
20
261.4999999999967
10
205.53898979991317
20
261.49999999999676
42
0.11964542977064532
10
209.66557702072487
20
262.50179533213327
42
0.15578248133527225
10
237.49820466786451
20
290.33442297927314
42
0.11964542977064206
10
238.50000000000094
20
294.46101020008479
10
238.50000000000094
20
345.53898979990856
42
0.11964542977064226
10
237.49820466786394
20
349.66557702071987
42
0.1557824813352687
10
209.66557702072564
20
377.49820466785962
42
0.11964542977065018
10
205.53898979991379
20
378.49999999999619
10
154.4610102000874
20
378.49999999999619
42
0.1196454297706495
10
150.33442297927587
20
377.49820466785911
42
0.15578248133526118
10
122.50179533213753
20
349.66557702072191
42
0.11964542977064932
10
121.50000000000098
20
345.5389897999101
10
121.50000000000098
20
294.46101020008325
42
0.11964542977065031
0
LWPOLYLINE
5
102
100
AcDbEntity
8
0
100
AcDbPolyline
90
16
70
1
43
0.0
10
205.53898979991169
20
141.49999999999775
10
154.46101020008922
20
141.49999999999775
42
-0.11964542977063998
10
150.33442297927758
20
142.5017953321339
42
-0.15578248133527692
10
122.50179533213722
20
170.33442297927428
42
-0.11964542977064201
10
121.50000000000077
20
174.46101020008587
10
121.50000000000071
20
225.53898979990944
42
-0.11964542977064291
10
122.50179533213731
20
229.66557702072106
42
-0.1557824813352735
10
150.33442297927701
20
257.49820466786076
42
-0.11964542977064258
10
154.46101020008859
20
258.49999999999721
10
205.53898979991226
20
258.49999999999733
42
-0.11964542977064258
10
209.6655770207239
20
257.49820466786093
42
-0.15578248133528214
10
237.49820466786468
20
229.66557702071927
42
-0.11964542977063503
10
238.50000000000102
20
225.53898979990791
10
238.50000000000102
20
174.4610102000874
42
-0.11964542977063582
10
237.49820466786517
20
170.33442297927576
42
-0.15578248133528499
10
209.66557702072319
20
142.50179533213415
42
-0.11964542977063965
0
LWPOLYLINE
5
103
100
AcDbEntity
8
0
100
AcDbPolyline
90
8
70
1
43
0.0
10
77.200000000000131
20
-5.9000000000004746
10
282.80000000000018
20
-5.9000000000004746
42
0.41421356237309542
10
285.80000000000018
20
-2.900000000000496
10
285.80000000000013
20
402.89999999999799
42
0.41421356237309503
10
282.80000000000018
20
405.89999999999799
10
77.200000000000131
20
405.89999999999799
42
0.41421356237309503
10
74.200000000000159
20
402.89999999999799
10
74.200000000000159
20
-2.9000000000005492
42
0.41421356237309159
0
CIRCLE
5
104
100
AcDbEntity
8
0
100
AcDbCircle
10
232.49999618530302
20
132.50000000001802
30
1.3500311979441904e-12
40
2.5499999999999998
210
-2.5757174171303723e-14
220
-5.9527815623194804e-46
230
1
0
CIRCLE
5
105
100
AcDbEntity
8
0
100
AcDbCircle
10
232.49999618530302
20
147.50000000001796
30
1.3500311979441904e-12
40
2.5499999999999998
210
-2.5757174171303723e-14
220
-5.9527815623194804e-46
230
1
0
CIRCLE
5
106
100
AcDbEntity
8
0
100
AcDbCircle
10
232.49999618530302
20
252.50000000001762
30
1.3500311979441904e-12
40
2.5499999999999998
210
-2.5757174171303723e-14
220
-5.9527815623194804e-46
230
1
0
CIRCLE
5
107
100
AcDbEntity
8
0
100
AcDbCircle
10
232.49999618530302
20
267.50000000001756
30
1.3500311979441904e-12
40
2.5499999999999998
210
-2.5757174171303723e-14
220
-5.9527815623194804e-46
230
1
0
CIRCLE
5
108
100
AcDbEntity
8
0
100
AcDbCircle
10
127.49999618530303
20
252.50000000001762
30
-1.2789769243681803e-12
40
2.5499999999999998
210
-2.4868995751603595e-14
220
-5.7475132325843259e-46
230
1
0
CIRCLE
5
109
100
AcDbEntity
8
0
100
AcDbCircle
10
127.49999618530303
20
267.50000000001756
30
-1.2789769243681803e-12
40
2.5499999999999998
210
-2.4868995751603595e-14
220
-5.7475132325843259e-46
230
1
0
CIRCLE
5
110
100
AcDbEntity
8
0
100
AcDbCircle
10
127.49999618530303
20
147.50000000001796
30
-1.2789769243681803e-12
40
2.5499999999999998
210
-2.4868995751603595e-14
220
-5.7475132325843259e-46
230
1
0
CIRCLE
5
111
100
AcDbEntity
8
0
100
AcDbCircle
10
127.49999618530303
20
132.50000000001802
30
-1.2789769243681803e-12
40
2.5499999999999998
210
-2.4868995751603595e-14
220
-5.7475132325843259e-46
230
1
0
CIRCLE
5
112
100
AcDbEntity
8
0
100
AcDbCircle
10
127.49999618530303
20
372.50000000001711
30
-1.2789769243681803e-12
40
2.5499999999999998
210
-2.4868995751603595e-14
220
-5.7475132325843259e-46
230
1
0
CIRCLE
5
113
100
AcDbEntity
8
0
100
AcDbCircle
10
232.49999618530302
20
372.50000000001711
30
1.3500311979441904e-12
40
2.5499999999999998
210
-2.5757174171303723e-14
220
-5.9527815623194804e-46
230
1
0
CIRCLE
5
114
100
AcDbEntity
8
0
100
AcDbCircle
10
127.49999618530303
20
27.50000000001841
30
-1.2789769243681803e-12
40
2.5499999999999998
210
-2.4868995751603595e-14
220
-5.7475132325843259e-46
230
1
0
CIRCLE
5
115
100
AcDbEntity
8
0
100
AcDbCircle
10
232.49999618530302
20
27.50000000001841
30
1.3500311979441904e-12
40
2.5499999999999998
210
-2.5757174171303723e-14
220
-5.9527815623194804e-46
230
1
0
ENDSEC
0
SECTION
2
OBJECTS
0
DICTIONARY
5
C
100
AcDbDictionary
3
ACAD_GROUP
350
D
3
ACAD_MLINESTYLE
350
17
0
DICTIONARY
5
D
100
AcDbDictionary
0
DICTIONARY
5
1A
330
C
100
AcDbDictionary
0
DICTIONARY
5
17
100
AcDbDictionary
0
ENDSEC
0
EOF
